<svg xmlns="http://www.w3.org/2000/svg" viewBox="0 0 500 500" width="100%" height="100%">
  <rect width="500" height="500" rx="40" fill="#1E1E1E"/>

  <g transform="translate(25, 15)">
    <path d="M 160,130 L 100,190 L 160,250" 
          fill="none" 
          stroke="#FFC107" 
          stroke-width="24" 
          stroke-linecap="round" 
          stroke-linejoin="round"/>
          
    <path d="M 100,190 L 160,190 C 200,190 220,210 220,235 C 220,260 200,280 160,280 L 110,280" 
          fill="none" 
          stroke="#FFFFFF" 
          stroke-width="24" 
          stroke-linecap="round" 
          stroke-linejoin="round"/>

    <path d="M 250,130 L 250,330" 
          fill="none" 
          stroke="#FFFFFF" 
          stroke-width="24" 
          stroke-linecap="round"/>
          
    <path d="M 250,130 L 300,130 C 350,130 380,165 380,210 C 380,255 350,290 300,290 L 250,290" 
          fill="none" 
          stroke="#FFC107" 
          stroke-width="24" 
          stroke-linecap="round" 
          stroke-linejoin="round"/>

    <path d="M 340,230 L 390,280 L 340,330" 
          fill="none" 
          stroke="#FFFFFF" 
          stroke-width="24" 
          stroke-linecap="round" 
          stroke-linejoin="round"/>
  </g>

  <text x="250" y="420" 
        text-anchor="middle" 
        fill="#FFFFFF" 
        font-family="'Poppins', 'Segoe UI', sans-serif" 
        font-size="32" 
        font-weight="700" 
        letter-spacing="8">SDP</text>
        
  <text x="250" y="450" 
        text-anchor="middle" 
        fill="#FFC107" 
        font-family="'Poppins', 'Segoe UI', sans-serif" 
        font-size="14" 
        font-weight="500" 
        letter-spacing="4">DEV &amp; DESIGN</text>
</svg>
